<svg xmlns="http://www.w3.org/2000/svg" width="320" height="220" viewBox="0 0 320 220" role="img" aria-labelledby="title desc">
  <title id="title">Deep Learning and Representation Learning</title>
  <desc id="desc">Original license-safe schematic illustration for the Deep Learning and Representation Learning taxonomy.</desc>
  <rect width="320" height="220" rx="28" fill="#f8fafc"/>
  <circle cx="64" cy="54" r="35" fill="#14b8a6" opacity="0.16"/>
  <circle cx="266" cy="176" r="41" fill="#9333ea" opacity="0.12"/>
  <path d="M31 190c45-24 93-24 144 0s92 24 114 0" fill="none" stroke="#e2e8f0" stroke-width="7" stroke-linecap="round"/>
  
          <g stroke="#14b8a6" stroke-width="4" opacity="0.9">
            <path d="M82 74l66 38-66 48m66-48 83-39m-83 39 82 47m-82-47v69"/>
            <path d="M82 160l67 21 81-22"/>
          </g>
          <g fill="#ffffff" stroke="#9333ea" stroke-width="5">
            <circle cx="82" cy="74" r="18"/>
            <circle cx="82" cy="160" r="18"/>
            <circle cx="148" cy="112" r="18"/>
            <circle cx="149" cy="181" r="18"/>
            <circle cx="231" cy="73" r="18"/>
            <circle cx="230" cy="159" r="18"/>
          </g>
          <path d="M70 74h24m-12-12v24m137 71h22m-11-11v22" stroke="#9333ea" stroke-width="4" stroke-linecap="round"/>
        
</svg>
