<svg xmlns="http://www.w3.org/2000/svg" width="320" height="220" viewBox="0 0 320 220" role="img" aria-labelledby="title desc">
  <title id="title">EEG Signal Processing and Datasets</title>
  <desc id="desc">Original license-safe schematic illustration for the EEG Signal Processing and Datasets taxonomy.</desc>
  <rect width="320" height="220" rx="28" fill="#f8fafc"/>
  <circle cx="64" cy="54" r="35" fill="#f97316" opacity="0.16"/>
  <circle cx="266" cy="176" r="41" fill="#0891b2" opacity="0.12"/>
  <path d="M31 190c45-24 93-24 144 0s92 24 114 0" fill="none" stroke="#e2e8f0" stroke-width="7" stroke-linecap="round"/>
  
          <rect x="58" y="55" width="204" height="124" rx="18" fill="#ffffff" stroke="#0891b2" stroke-width="5"/>
          <path d="M77 118c18 0 12-42 31-42s11 83 32 83 13-71 34-71 13 53 34 53 12-31 34-31" fill="none" stroke="#f97316" stroke-width="6" stroke-linecap="round"/>
          <path d="M85 189h150" stroke="#0891b2" stroke-width="6" stroke-linecap="round"/>
          <path d="M108 70v95m52-95v95m52-95v95" stroke="#dbeafe" stroke-width="3"/>
          <path d="M226 58l22-28m-8 27 26-5" stroke="#0891b2" stroke-width="5" stroke-linecap="round"/>
        
</svg>
