<svg xmlns="http://www.w3.org/2000/svg" width="320" height="220" viewBox="0 0 320 220" role="img" aria-labelledby="title desc">
  <title id="title">Invasive and Implantable Interfaces</title>
  <desc id="desc">Original license-safe schematic illustration for the Invasive and Implantable Interfaces taxonomy.</desc>
  <rect width="320" height="220" rx="28" fill="#f8fafc"/>
  <circle cx="64" cy="54" r="35" fill="#a855f7" opacity="0.16"/>
  <circle cx="266" cy="176" r="41" fill="#2563eb" opacity="0.12"/>
  <path d="M31 190c45-24 93-24 144 0s92 24 114 0" fill="none" stroke="#e2e8f0" stroke-width="7" stroke-linecap="round"/>
  
          
      <path d="M126 81c-20 0-35 13-35 32 0 20 14 35 34 35h37c19 0 34-14 34-33 0-18-14-32-32-32-5-13-19-22-38-22z" fill="#ffffff" stroke="#2563eb" stroke-width="5" stroke-linejoin="round"/>
      <path d="M117 91c-9 6-13 16-9 25m23-29c-9 8-10 20-2 30m25-26c10 8 12 20 3 31m-42 10c13 8 29 8 44 0" fill="none" stroke="#a855f7" stroke-width="4" stroke-linecap="round"/>
      <circle cx="129" cy="124" r="3" fill="#2563eb"/>
      <circle cx="153" cy="124" r="3" fill="#2563eb"/>
      <path d="M133 135q9 7 18 0" fill="none" stroke="#2563eb" stroke-width="4" stroke-linecap="round"/>
    
          <g stroke="#2563eb" stroke-width="5" stroke-linecap="round">
            <path d="M96 61l-28-28m54 25-9-36m56 43 26-37m17 74 42-9"/>
          </g>
          <g fill="#a855f7" stroke="#ffffff" stroke-width="3">
            <circle cx="68" cy="33" r="11"/>
            <circle cx="113" cy="22" r="11"/>
            <circle cx="195" cy="28" r="11"/>
            <circle cx="254" cy="93" r="11"/>
          </g>
          <rect x="115" y="151" width="92" height="31" rx="10" fill="#eef2ff" stroke="#2563eb" stroke-width="5"/>
          <path d="M130 165h62" stroke="#a855f7" stroke-width="5" stroke-linecap="round"/>
        
</svg>
