<svg xmlns="http://www.w3.org/2000/svg" width="320" height="220" viewBox="0 0 320 220" role="img" aria-labelledby="title desc">
  <title id="title">Rehabilitation and Neuroprosthetics</title>
  <desc id="desc">Original license-safe schematic illustration for the Rehabilitation and Neuroprosthetics taxonomy.</desc>
  <rect width="320" height="220" rx="28" fill="#f8fafc"/>
  <circle cx="64" cy="54" r="35" fill="#22c55e" opacity="0.16"/>
  <circle cx="266" cy="176" r="41" fill="#dc2626" opacity="0.12"/>
  <path d="M31 190c45-24 93-24 144 0s92 24 114 0" fill="none" stroke="#e2e8f0" stroke-width="7" stroke-linecap="round"/>
  
          <path d="M96 66v74c0 25 19 45 44 45h35c26 0 48-22 48-48v-37" fill="#ffffff" stroke="#dc2626" stroke-width="6" stroke-linecap="round"/>
          <path d="M124 65v73m27-82v82m27-75v77m26-56v61" stroke="#22c55e" stroke-width="9" stroke-linecap="round"/>
          <path d="M91 132c29 2 52 16 67 42" fill="none" stroke="#dc2626" stroke-width="6" stroke-linecap="round"/>
          <circle cx="230" cy="66" r="18" fill="#dcfce7" stroke="#22c55e" stroke-width="5"/>
          <path d="M221 66h18m-9-9v18" stroke="#22c55e" stroke-width="5" stroke-linecap="round"/>
        
</svg>
