<svg xmlns="http://www.w3.org/2000/svg" width="320" height="220" viewBox="0 0 320 220" role="img" aria-labelledby="title desc">
  <title id="title">Speech, Language, and Communication BCIs</title>
  <desc id="desc">Original license-safe schematic illustration for the Speech, Language, and Communication BCIs taxonomy.</desc>
  <rect width="320" height="220" rx="28" fill="#f8fafc"/>
  <circle cx="64" cy="54" r="35" fill="#06b6d4" opacity="0.16"/>
  <circle cx="266" cy="176" r="41" fill="#be123c" opacity="0.12"/>
  <path d="M31 190c45-24 93-24 144 0s92 24 114 0" fill="none" stroke="#e2e8f0" stroke-width="7" stroke-linecap="round"/>
  
          
      <path d="M126 81c-20 0-35 13-35 32 0 20 14 35 34 35h37c19 0 34-14 34-33 0-18-14-32-32-32-5-13-19-22-38-22z" fill="#ffffff" stroke="#be123c" stroke-width="5" stroke-linejoin="round"/>
      <path d="M117 91c-9 6-13 16-9 25m23-29c-9 8-10 20-2 30m25-26c10 8 12 20 3 31m-42 10c13 8 29 8 44 0" fill="none" stroke="#06b6d4" stroke-width="4" stroke-linecap="round"/>
      <circle cx="129" cy="124" r="3" fill="#be123c"/>
      <circle cx="153" cy="124" r="3" fill="#be123c"/>
      <path d="M133 135q9 7 18 0" fill="none" stroke="#be123c" stroke-width="4" stroke-linecap="round"/>
    
          <path d="M203 62h49c20 0 36 15 36 34s-16 34-36 34h-20l-25 24 6-24h-10c-20 0-36-15-36-34s16-34 36-34z" fill="#ffffff" stroke="#be123c" stroke-width="5" stroke-linejoin="round"/>
          <circle cx="215" cy="96" r="5" fill="#06b6d4"/>
          <circle cx="235" cy="96" r="5" fill="#06b6d4"/>
          <circle cx="255" cy="96" r="5" fill="#06b6d4"/>
          <path d="M79 169c24 16 58 16 82 0" fill="none" stroke="#06b6d4" stroke-width="7" stroke-linecap="round"/>
        
</svg>
