<svg xmlns="http://www.w3.org/2000/svg" width="320" height="220" viewBox="0 0 320 220" role="img" aria-labelledby="title desc">
  <title id="title">SSVEP, P300, and ERP Spellers</title>
  <desc id="desc">Original license-safe schematic illustration for the SSVEP, P300, and ERP Spellers taxonomy.</desc>
  <rect width="320" height="220" rx="28" fill="#f8fafc"/>
  <circle cx="64" cy="54" r="35" fill="#f59e0b" opacity="0.16"/>
  <circle cx="266" cy="176" r="41" fill="#7c3aed" opacity="0.12"/>
  <path d="M31 190c45-24 93-24 144 0s92 24 114 0" fill="none" stroke="#e2e8f0" stroke-width="7" stroke-linecap="round"/>
  
          <rect x="67" y="55" width="185" height="123" rx="18" fill="#ffffff" stroke="#7c3aed" stroke-width="5"/>
          <path d="M115 188h90m-45-10v24" stroke="#7c3aed" stroke-width="6" stroke-linecap="round"/>
          <g fill="#f59e0b">
            <rect x="91" y="78" width="32" height="25" rx="8"/>
            <rect x="143" y="78" width="32" height="25" rx="8"/>
            <rect x="195" y="78" width="32" height="25" rx="8"/>
            <rect x="91" y="119" width="32" height="25" rx="8"/>
            <rect x="143" y="119" width="32" height="25" rx="8"/>
            <rect x="195" y="119" width="32" height="25" rx="8"/>
          </g>
          <circle cx="159" cy="132" r="18" fill="#fff7ed" stroke="#7c3aed" stroke-width="5"/>
          <path d="M159 116l4 10 11 1-8 7 2 11-9-6-9 6 2-11-8-7 11-1z" fill="#7c3aed"/>
        
</svg>
